<svg width="81" height="24" viewBox="0 0 81 24" fill="none" xmlns="http://www.w3.org/2000/svg">
<path d="M56.6835 9.0361C56.4286 10.0036 56.3005 10.9986 56.3025 11.9974C56.3022 15.1471 57.5775 18.1704 59.8529 20.4141C62.1283 22.6578 65.221 23.9416 68.4628 23.9882H68.6533C71.5862 23.9932 74.4242 22.9792 76.6548 21.1293V24H81V11.7926H69.8166V16.0219H74.6078C73.9412 16.9567 73.0513 17.7206 72.0142 18.248C70.9771 18.7754 69.8239 19.0506 68.6533 19.0501C68.3824 19.0499 68.1116 19.0342 67.8426 19.0028C67.1254 18.9263 66.4243 18.7444 65.7632 18.4634C63.5596 17.707 61.5834 16.4316 60.0116 14.7514C58.4398 13.0711 57.3214 11.0384 56.7565 8.83527C56.7362 8.90221 56.716 8.96915 56.6997 9.0361" fill="white"/>
<path d="M56.7401 8.83524C57.3049 11.0384 58.4234 13.0711 59.9952 14.7513C61.567 16.4316 63.5432 17.707 65.7468 18.4633C64.745 18.0389 63.8548 17.4001 63.1426 16.5948C62.4304 15.7895 61.9146 14.8383 61.6336 13.8123C61.3525 12.7863 61.3136 11.7119 61.5196 10.6692C61.7256 9.62649 62.1713 8.64244 62.8234 7.79044C63.4756 6.93844 64.3173 6.24046 65.2858 5.74858C66.2543 5.25669 67.3247 4.98359 68.417 4.94964C69.5093 4.91569 70.5954 5.12177 71.5943 5.55251C72.5932 5.98324 73.4792 6.62752 74.186 7.43729C74.5525 7.85776 75.0089 8.19566 75.5234 8.42755C76.0378 8.65944 76.5981 8.77974 77.1653 8.78011H80.5458C79.8214 6.25036 78.2626 4.02143 76.1085 2.43538C73.9545 0.849322 71.3242 -0.00622523 68.6213 3.41026e-05C65.9185 0.00629344 63.2924 0.874013 61.1462 2.47003C58.9999 4.06604 57.452 6.30217 56.7401 8.83524" fill="white"/>
<path d="M52.5243 0.00451896C51.6638 0.00359487 50.8262 0.274175 50.1376 0.775552C49.449 1.27693 48.9466 1.98199 48.706 2.78465L44.8795 15.5276H44.8147L39.9506 0.00451896H34.8392L29.6549 15.5276H29.59L25.2812 0.00451896H0V1.94983C-3.11886e-07 2.39178 0.0896714 2.82941 0.263888 3.23768C0.438104 3.64594 0.693448 4.01685 1.01532 4.32918C1.33719 4.64151 1.71928 4.88914 2.13973 5.05791C2.56018 5.22668 3.01075 5.31328 3.46568 5.31276H20.2225L25.9581 23.9704H32.5328L37.3645 10.1091H37.4415L41.7503 23.9704H48.3574L56.2332 0.00451896H52.5243Z" fill="white"/>
<path d="M12.9259 6.84259H6.14047V23.9684H12.9259V6.84259Z" fill="white"/>
</svg>
