<svg id="Layer_1" data-name="Layer 1" xmlns="http://www.w3.org/2000/svg" xmlns:xlink="http://www.w3.org/1999/xlink" viewBox="0 0 205.71 83.22">
  <defs>
    <style>
      .cls-1 {
        fill: url(#linear-gradient);
      }

      .cls-2 {
        fill: url(#linear-gradient-2);
      }

      .cls-3 {
        fill: url(#linear-gradient-3);
      }

      .cls-4 {
        fill: #2f3845;
      }

      .cls-5 {
        fill: url(#linear-gradient-4);
      }
    </style>
    <linearGradient id="linear-gradient" x1="146.89" y1="43.73" x2="190.24" y2="43.73" gradientUnits="userSpaceOnUse">
      <stop offset="0" stop-color="#333b44"/>
      <stop offset="1" stop-color="#4f5a63"/>
    </linearGradient>
    <linearGradient id="linear-gradient-2" x1="140.47" y1="53.82" x2="184.46" y2="8.92" gradientUnits="userSpaceOnUse">
      <stop offset="0" stop-color="#ff0700"/>
      <stop offset="1" stop-color="#ff6d00"/>
    </linearGradient>
    <linearGradient id="linear-gradient-3" x1="72" y1="64.86" x2="72" y2="3.25" xlink:href="#linear-gradient-2"/>
    <linearGradient id="linear-gradient-4" x1="26.15" y1="62.06" x2="26.15" y2="13.76" xlink:href="#linear-gradient-2"/>
  </defs>
  <title>logo TWG-01</title>
  <path class="cls-1" d="M142.47,25a30.09,30.09,0,0,0-.94,7.52,30.45,30.45,0,0,0,30,30.45H172a30.32,30.32,0,0,0,19.74-7.26V63h10.72V32H174.87V42.74h11.82A17.86,17.86,0,0,1,172,50.43a16.9,16.9,0,0,1-2-.12,17.59,17.59,0,0,1-5.13-1.37,34.87,34.87,0,0,1-22.22-24.45c-.05.17-.1.34-.14.51"/>
  <path class="cls-2" d="M142.61,24.49a34.87,34.87,0,0,0,22.22,24.45,17.91,17.91,0,1,1,20.82-28A9.64,9.64,0,0,0,193,24.35h8.34a30.46,30.46,0,0,0-58.73.14"/>
  <path class="cls-3" d="M132.21,2.06a9.8,9.8,0,0,0-9.42,7.06l-9.44,32.36h-.16l-12-39.42H88.58L75.79,41.48h-.16L65,2.06H2.63V7a8.54,8.54,0,0,0,8.55,8.54H52.52L66.67,62.92H82.89l11.92-35.2H95l10.63,35.2h16.3L141.36,2.06Z"/>
  <polygon class="cls-4" points="5.51 80.14 5.51 72.82 2.63 72.82 2.63 71.58 9.77 71.58 9.77 72.82 6.88 72.82 6.88 80.14 5.51 80.14"/>
  <polygon class="cls-4" points="12.68 80.14 12.68 71.58 18.3 71.58 18.3 72.82 14.05 72.82 14.05 75.01 17.25 75.01 17.25 76.2 14.05 76.2 14.05 78.91 18.46 78.91 18.46 80.14 12.68 80.14"/>
  <path class="cls-4" d="M21.2,75.86a4.09,4.09,0,0,1,1.31-3.14A4.59,4.59,0,0,1,27.83,72a4.08,4.08,0,0,1,1.53,1.44l-1,.77a3.09,3.09,0,0,0-4.82-.58,3.34,3.34,0,0,0,0,4.52,3.1,3.1,0,0,0,4.82-.57l1,.76a4,4,0,0,1-1.52,1.45,4.4,4.4,0,0,1-2.14.52A4.33,4.33,0,0,1,22.51,79a4.07,4.07,0,0,1-1.31-3.14"/>
  <polygon class="cls-4" points="32.27 80.14 32.27 71.58 33.64 71.58 33.64 74.99 37.95 74.99 37.95 71.58 39.32 71.58 39.32 80.14 37.95 80.14 37.95 76.22 33.64 76.22 33.64 80.14 32.27 80.14"/>
  <polygon class="cls-4" points="47.9 71.58 49.27 71.58 49.27 80.28 48.81 80.28 43.6 74.34 43.6 80.14 42.23 80.14 42.23 71.44 42.7 71.44 47.9 77.35 47.9 71.58"/>
  <rect class="cls-4" x="53.17" y="71.58" width="1.37" height="8.55"/>
  <path class="cls-4" d="M58.28,75.86a4.09,4.09,0,0,1,1.31-3.14A4.59,4.59,0,0,1,64.91,72a4.08,4.08,0,0,1,1.53,1.44l-1,.77a3.09,3.09,0,0,0-4.82-.58,3.34,3.34,0,0,0,0,4.52,3.1,3.1,0,0,0,4.82-.57l1,.76a4,4,0,0,1-1.52,1.45,4.4,4.4,0,0,1-2.14.52A4.33,4.33,0,0,1,59.59,79a4.07,4.07,0,0,1-1.31-3.14"/>
  <path class="cls-4" d="M76,80.14l-.61-1.43H71.53l-.61,1.43H69.46l3.77-8.7h.47l3.77,8.7Zm-1.1-2.61L73.47,74,72,77.53Z"/>
  <polygon class="cls-4" points="80.38 80.14 80.38 71.58 81.75 71.58 81.75 78.91 85.66 78.91 85.66 80.14 80.38 80.14"/>
  <polygon class="cls-4" points="104.63 71.58 106.13 71.58 102.8 80.28 102.34 80.28 99.79 74.22 97.24 80.28 96.77 80.28 93.44 71.58 94.96 71.58 97.09 77.36 99.54 71.44 100.02 71.44 102.49 77.36 104.63 71.58"/>
  <path class="cls-4" d="M108.57,75.86a4.18,4.18,0,0,1,1.3-3.14,4.59,4.59,0,0,1,6.36,0,4.39,4.39,0,0,1,0,6.28,4.59,4.59,0,0,1-6.36,0,4.06,4.06,0,0,1-1.3-3.14m7.56,0a3.08,3.08,0,0,0-.88-2.25,3.13,3.13,0,0,0-4.38,0,3.08,3.08,0,0,0-.88,2.26,3.14,3.14,0,0,0,.87,2.27,3.13,3.13,0,0,0,4.39,0,3.12,3.12,0,0,0,.88-2.27"/>
  <path class="cls-4" d="M127.35,80.14h-1.57l-2.44-3.31h-1.57v3.31H120.4V71.58h3.12a3,3,0,0,1,2.1.74,2.4,2.4,0,0,1,.81,1.88,2.56,2.56,0,0,1-.44,1.48,2.53,2.53,0,0,1-1.21.93Zm-5.58-7.34v2.82h1.73a1.53,1.53,0,0,0,1.11-.39,1.31,1.31,0,0,0,.4-1,1.36,1.36,0,0,0-.4-1,1.53,1.53,0,0,0-1.11-.39Z"/>
  <polygon class="cls-4" points="130.25 80.14 130.25 71.58 131.63 71.58 131.63 78.91 135.54 78.91 135.54 80.14 130.25 80.14"/>
  <path class="cls-4" d="M138.4,80.14V71.58h2.68a4.82,4.82,0,0,1,3.37,1.18,4.35,4.35,0,0,1,0,6.17,4.7,4.7,0,0,1-3.36,1.21Zm1.37-1.23h1.3a3.3,3.3,0,0,0,2.36-.85,2.93,2.93,0,0,0,.89-2.21,2.89,2.89,0,0,0-.88-2.2,3.33,3.33,0,0,0-2.37-.82h-1.3Z"/>
  <path class="cls-4" d="M156,76a4.11,4.11,0,0,1,1.3-3.14,4.33,4.33,0,0,1,3.21-1.28A4.14,4.14,0,0,1,164,73.32l-1,.81a3,3,0,0,0-2.56-1.34,3,3,0,0,0-2.21.89,3.38,3.38,0,0,0,0,4.54,3,3,0,0,0,2.26.92,2.85,2.85,0,0,0,2.56-1.3v-.92h-2.64V75.7h4v2.41a4.29,4.29,0,0,1-1.65,1.65,4.59,4.59,0,0,1-2.34.61,4.3,4.3,0,0,1-3.21-1.28A4.12,4.12,0,0,1,156,76"/>
  <path class="cls-4" d="M173.78,80.14h-1.57l-2.43-3.31h-1.57v3.31h-1.38V71.58H170a3,3,0,0,1,2.1.74,2.43,2.43,0,0,1,.8,1.88,2.49,2.49,0,0,1-1.65,2.41Zm-5.57-7.34v2.82h1.72a1.53,1.53,0,0,0,1.11-.39,1.32,1.32,0,0,0,.41-1,1.36,1.36,0,0,0-.41-1,1.53,1.53,0,0,0-1.11-.39Z"/>
  <path class="cls-4" d="M174.69,75.86A4.12,4.12,0,0,1,176,72.72a4.31,4.31,0,0,1,3.17-1.28,4.36,4.36,0,0,1,3.18,1.28,4.39,4.39,0,0,1,0,6.28A4.59,4.59,0,0,1,176,79a4.06,4.06,0,0,1-1.3-3.14m7.56,0a3.08,3.08,0,0,0-.88-2.25,3.13,3.13,0,0,0-4.38,0,3.08,3.08,0,0,0-.88,2.26,3.14,3.14,0,0,0,.87,2.27,3.13,3.13,0,0,0,4.39,0,3.12,3.12,0,0,0,.88-2.27"/>
  <path class="cls-4" d="M186.57,76.68v-5.1H188v5.19a2.23,2.23,0,0,0,.59,1.66,2.11,2.11,0,0,0,1.56.59,2.08,2.08,0,0,0,1.54-.59,2.27,2.27,0,0,0,.59-1.66V71.58h1.37v5.1a3.56,3.56,0,0,1-1,2.63,3.41,3.41,0,0,1-2.52,1,3.45,3.45,0,0,1-2.55-1,3.56,3.56,0,0,1-1-2.63"/>
  <path class="cls-4" d="M196.43,80.14V71.58h3.13a3,3,0,0,1,2.1.74,2.61,2.61,0,0,1,0,3.77,3,3,0,0,1-2.09.74h-1.75v3.31Zm1.38-4.52h1.72a1.56,1.56,0,0,0,1.11-.38,1.33,1.33,0,0,0,.41-1,1.37,1.37,0,0,0-.41-1,1.56,1.56,0,0,0-1.11-.38h-1.72Z"/>
  <rect class="cls-5" x="17.78" y="19.43" width="16.74" height="43.49"/>
</svg>
